<svg width="30" height="30" viewBox="0 0 47 41" fill="none" xmlns="http://www.w3.org/2000/svg"><path d="M4.6 24c0 5.1 2.1 10 5.7 13.7 3.7 3.6 8.6 5.7 13.7 5.7s10-2.1 13.7-5.7c3.6-3.7 5.7-8.6 5.7-13.7 0-2.5-.5-5-1.5-7.4-.9-2.4-2.4-4.5-4.2-6.3-1.8-1.8-3.9-3.3-6.3-4.2-2.4-1-4.9-1.5-7.4-1.5s-5 .5-7.4 1.5c-2.4.9-4.5 2.4-6.3 4.2-1.8 1.8-3.3 3.9-4.2 6.3-1 2.4-1.5 4.9-1.5 7.4z" fill="#656769"/><path d="M24 9.2c4.7 0 9.3 1.8 12.9 4.8 3.5 3.2 5.8 7.6 6.3 12.3l.2-2.3c0-5.1-2.1-10-5.7-13.7C34 6.7 29.1 4.6 24 4.6s-10 2.1-13.7 5.7C6.7 14 4.6 18.9 4.6 24l.2 2.3c.5-4.7 2.8-9.1 6.3-12.3 3.6-3 8.2-4.8 12.9-4.8z" fill="#87898C"/><path d="M4.6 24c0 5.1 2.1 10 5.7 13.7 3.7 3.6 8.6 5.7 13.7 5.7s10-2.1 13.7-5.7c3.6-3.7 5.7-8.6 5.7-13.7 0-2.5-.5-5-1.5-7.4-.9-2.4-2.4-4.5-4.2-6.3-1.8-1.8-3.9-3.3-6.3-4.2-2.4-1-4.9-1.5-7.4-1.5s-5 .5-7.4 1.5c-2.4.9-4.5 2.4-6.3 4.2-1.8 1.8-3.3 3.9-4.2 6.3-1 2.4-1.5 4.9-1.5 7.4z" stroke="#45413C" stroke-linecap="round" stroke-linejoin="round"/><path d="M38.3 18.6c-1.3.9-3.3.2-4.6-1.6-1.3-1.7-1.3-4-.1-4.9 1.3-.9 3.4-.2 4.7 1.6 1.3 1.7 1.3 3.9 0 4.9z" fill="#87898C"/><path d="M33.6 14.5c1.3-.9 3.4-.2 4.7 1.5.3.5.6 1 .7 1.6.3-.6.3-1.4.2-2-.2-.7-.5-1.4-.9-1.9-1.3-1.7-3.4-2.5-4.7-1.5-.4.4-.7.9-.9 1.5-.1.6 0 1.3.2 1.8.1-.4.4-.7.7-1z" fill="#525252"/><path d="M38.3 18.6c-1.3.9-3.3.2-4.6-1.6-1.3-1.7-1.3-4-.1-4.8 1.3-.9 3.4-.2 4.7 1.5 1.3 1.8 1.3 4 0 4.9z" stroke="#45413C" stroke-linecap="round" stroke-linejoin="round"/><path d="M9 20.8c.9.3 2-.5 2.5-1.8s.2-2.7-.7-3c-.8-.3-2 .5-2.5 1.8s-.3 2.6.7 3z" fill="#87898C"/><path d="M8.3 19.5c.5-1.3 1.6-2.1 2.5-1.8.2.1.3.3.5.3l.3.6c.3-1.2 0-2.3-.8-2.6-.8-.3-2 .5-2.5 1.8-.3.6-.3 1.4-.1 2.1l.1-.4z" fill="#525252"/><path d="M9 20.8c.9.3 2-.5 2.5-1.8s.2-2.7-.7-3c-.8-.3-2 .5-2.5 1.8s-.3 2.6.7 3z" stroke="#45413C" stroke-linecap="round" stroke-linejoin="round"/><path d="M23.9 39c-.4 1.4-2.4 2-4.5 1.5-2.2-.5-3.6-2.2-3.3-3.5.4-1.3 2.4-2 4.6-1.5 2.1.5 3.5 2.1 3.2 3.5z" fill="#87898C"/><path d="M20.7 37.1c.6.2 1.2.4 1.7.8.6.4 1 .9 1.3 1.4l.2-.3c.3-1.4-1.1-3-3.2-3.5-2.2-.5-4.2.1-4.6 1.5-.1.4 0 .8.2 1.2.7-1.1 2.4-1.6 4.4-1.1z" fill="#525252"/><path d="M23.9 39c-.4 1.4-2.4 2-4.5 1.5-2.2-.5-3.6-2.2-3.3-3.5.4-1.3 2.4-2 4.6-1.5 2.1.5 3.5 2.1 3.2 3.5z" stroke="#45413C" stroke-linecap="round" stroke-linejoin="round"/><path d="M36 27.1l.1.8.5.6.6.5.8.1.7-.1.7-.5c.2-.1.3-.4.4-.6l.2-.8-.2-.7-.4-.7-.7-.4-.7-.2-.8.2c-.2.1-.5.2-.6.4l-.5.7-.1.7z" fill="#87898C"/><path d="M38 26.6c.4 0 .8.2 1.1.4.3.2.6.5.7.9.2-.3.2-.5.2-.8 0-.5-.2-1.1-.6-1.4-.4-.4-.9-.6-1.4-.6-.5 0-1 .2-1.4.6-.4.3-.6.9-.6 1.4l.1.8c.2-.4.4-.7.8-.9.3-.3.7-.4 1.1-.4z" fill="#525252"/><path d="M36 27.1l.1.8.5.6.6.5.8.1.7-.1.7-.5c.2-.1.3-.4.4-.6l.2-.8-.2-.7-.4-.7-.7-.4-.7-.2-.8.2c-.2.1-.5.2-.6.4l-.5.7-.1.7z" stroke="#45413C" stroke-linecap="round" stroke-linejoin="round"/><path d="M13.8 25.4c0 .6.2 1.1.5 1.4.4.4.9.6 1.4.6.6 0 1.1-.2 1.4-.6.4-.3.6-.8.6-1.4 0-.5-.2-1-.6-1.4-.3-.4-.8-.6-1.4-.6-.5 0-1 .2-1.4.6-.3.4-.5.9-.5 1.4z" fill="#87898C"/><path d="M15.7 24.9l1.2.3c.3.2.6.6.7.9l.1-.7c0-.5-.2-1-.6-1.4-.3-.4-.8-.6-1.4-.6-.5 0-1 .2-1.4.6-.3.4-.6.9-.6 1.4l.2.7c.1-.3.4-.7.7-.9.4-.2.7-.4 1.1-.3z" fill="#525252"/><path d="M13.8 25.4c0 .6.2 1.1.5 1.4.4.4.9.6 1.4.6.6 0 1.1-.2 1.4-.6.4-.3.6-.8.6-1.4 0-.5-.2-1-.6-1.4-.3-.4-.8-.6-1.4-.6-.5 0-1 .2-1.4.6-.3.4-.5.9-.5 1.4z" stroke="#45413C" stroke-linecap="round" stroke-linejoin="round"/><path d="M15.4 14.3c0 .9.4 1.8 1.1 2.4.5.7 1.5 1 2.4 1 .9 0 1.7-.3 2.4-1 .7-.6 1-1.5 1-2.4 0-.9-.3-1.8-1-2.4-.7-.6-1.5-1-2.4-1-.9 0-1.9.4-2.4 1-.7.6-1.1 1.5-1.1 2.4z" fill="#87898C"/><path d="M18.9 13c.7 0 1.4.2 2 .7.5.3 1 1 1.2 1.6l.2-1c0-.9-.3-1.8-1-2.4-.7-.7-1.5-1-2.4-1-.9 0-1.9.3-2.4 1-.7.6-1.1 1.5-1.1 2.4l.2 1c.3-.6.7-1.3 1.3-1.6.6-.5 1.3-.7 2-.7z" fill="#525252"/><path d="M15.5 14.3c0 .5.1.9.3 1.3l.7 1.1 1.1.8c.4.2.9.2 1.4.2.4 0 .8 0 1.2-.2l1.1-.8c.3-.3.6-.7.7-1.1.2-.4.3-.8.3-1.3 0-.9-.3-1.8-1-2.4-.6-.6-1.5-1-2.3-1-1 0-1.9.4-2.5 1-.6.6-1 1.5-1 2.4z" stroke="#45413C" stroke-linecap="round" stroke-linejoin="round"/><path d="M24.6 30.3c0 .7.3 1.5.8 2 .6.5 1.3.8 2 .8.8 0 1.5-.3 2-.8.6-.5.9-1.3.9-2 0-.8-.3-1.5-.9-2-.5-.6-1.2-.9-2-.9-.7 0-1.4.3-2 .9-.5.5-.8 1.2-.8 2z" fill="#87898C"/><path d="M27.4 29.1c.6 0 1.2.2 1.7.6.5.3.9.9 1 1.4l.2-.8c0-.8-.3-1.5-.9-2-.5-.6-1.2-.9-2-.9-.7 0-1.4.3-2 .9-.5.5-.8 1.2-.8 2l.1.8c.2-.5.6-1.1 1-1.4.5-.4 1.1-.6 1.7-.6z" fill="#525252"/><path d="M24.6 30.3c0 .7.3 1.5.8 2 .6.5 1.3.8 2 .8.8 0 1.5-.3 2-.8.6-.5.9-1.3.9-2 0-.8-.3-1.5-.9-2-.5-.6-1.2-.9-2-.9-.7 0-1.4.3-2 .9-.5.5-.8 1.2-.8 2z" stroke="#45413C" stroke-linecap="round" stroke-linejoin="round"/></svg>