<svg xmlns="http://www.w3.org/2000/svg" viewBox="0 0 128 128"><path fill="#1572B6" d="M18.8 114.1L8.8 1.4h110.5l-10 112.8-45.2 12.5L19 114.2z"/><path fill="#33A9DC" d="M64 117l36.6-10 8.6-96.4H64V117z"/><path fill="#fff" d="M64 51.4h18.3l1.3-14.2H64V23.4h34.7l-.3 3.7L95 65.2H64V51.4z"/><path fill="#EBEBEB" d="M64 87.3l-15.3-4.2-1-11H33.8l2 21.7 28.3 8V87.2z"/><path fill="#fff" d="M81.1 64.7l-1.7 18.5L64 87.4v14.4l28.4-8 .2-2.2 2.4-27H81.1z"/><path fill="#EBEBEB" d="M64 23.4v13.8H30.6l-.3-3-.6-7-.3-3.8H64zm0 28v13.8H48.8l-.3-3-.6-7-.3-3.8H64z"/></svg>