<svg xmlns="http://www.w3.org/2000/svg" width="100" height="100" viewBox="0 0 50 50"><path d="M49.73 11h-.85c-1.05 0-2.04.49-2.68 1.32L37.5 23.7l-8.7-11.38c-.64-.83-1.63-1.32-2.68-1.32h-.85l10.97 14.35L25.04 40h.85c1.05 0 2.04-.49 2.68-1.32L37.5 27l8.94 11.68c.63.83 1.62 1.32 2.67 1.32h.85l-11.2-14.65L49.73 11zM21.29 34.24c-2.55 3.88-7.58 5.87-12.39 4.12C4.67 36.81 2 32.61 2 28.1V27h23v-4.13c0-6.5-4.82-12.2-11.3-12.8C6.27 9.36 0 15.21 0 22.5v5.57c0 5.37 3.21 10.36 8.27 12.18 6.6 2.38 13.55-1.17 15.9-7.26h-.64c-.91.01-1.74.49-2.24 1.25zM2 22.5C2 16.71 6.71 12 12.5 12S23 16.71 23 22.5V25H2v-2.5z" fill="red"/></svg>