<svg xmlns="http://www.w3.org/2000/svg" viewBox="0 0 128 128"><path fill="#F0DB4F" d="M1.4 1.4h125.2v125.2H1.4z"/><path fill="#323330" d="M116.3 96.7c-1-5.7-4.6-10.5-15.7-15-3.8-1.8-8-3-9.4-6-.5-1.7-.5-2.6-.2-3.7.8-3.3 4.8-4.4 8-3.4 2 .7 4 2.2 5 4.7l9.2-5.9c-1.4-2-2-3-3-4-3.2-3.6-7.7-5.5-14.8-5.4l-3.7.5c-3.5 1-6.9 2.7-8.9 5.2-6 6.7-4.2 18.5 3 23.3 7.1 5.3 17.5 6.5 19 11.5 1.2 6.1-4.6 8-10.3 7.4-4.2-.9-6.6-3-9-7l-9.6 5.5c1.1 2.5 2.3 3.6 4.3 5.8 9 9.2 31.8 8.7 35.8-5.2.2-.5 1.3-3.7.4-8.6zM69.5 59H57.8v30.3c0 6.4.3 12.3-.7 14.1-1.7 3.6-6.2 3.1-8.2 2.4-2-1-3.1-2.5-4.3-4.5l-.7-1-9.5 5.8c1.6 3.2 4 6 6.9 7.9 4.5 2.7 10.5 3.5 16.7 2 4-1.2 7.6-3.7 9.4-7.4 2.7-5 2-10.9 2-17.4V59z"/></svg>