<svg width="30" height="30" viewBox="0 0 47 41" fill="none" xmlns="http://www.w3.org/2000/svg">
<path d="M4.63 24C4.63 29.1372 6.67077 34.0641 10.3033 37.6967C13.9359 41.3292 18.8628 43.37 24 43.37C29.1372 43.37 34.0641 41.3292 37.6967 37.6967C41.3292 34.0641 43.37 29.1372 43.37 24C43.37 21.4563 42.869 18.9375 41.8955 16.5874C40.9221 14.2374 39.4953 12.102 37.6967 10.3033C35.898 8.50468 33.7627 7.07789 31.4126 6.10446C29.0625 5.13102 26.5437 4.63 24 4.63C21.4563 4.63 18.9375 5.13102 16.5874 6.10446C14.2373 7.07789 12.102 8.50468 10.3033 10.3033C8.50468 12.102 7.07789 14.2374 6.10446 16.5874C5.13102 18.9375 4.63 21.4563 4.63 24Z" fill="#656769"/>
<path d="M24 9.19C28.7404 9.19159 33.3155 10.9323 36.858 14.0822C40.4005 17.2322 42.6642 21.5723 43.22 26.28C43.3157 25.5237 43.3658 24.7623 43.37 24C43.37 18.8628 41.3292 13.9359 37.6967 10.3033C34.0641 6.67077 29.1372 4.63 24 4.63C18.8628 4.63 13.9359 6.67077 10.3033 10.3033C6.67077 13.9359 4.63 18.8628 4.63 24C4.63422 24.7623 4.68431 25.5237 4.78 26.28C5.33583 21.5723 7.59954 17.2322 11.142 14.0822C14.6845 10.9323 19.2596 9.19159 24 9.19Z" fill="#87898C"/>
<path d="M4.63 24C4.63 29.1372 6.67077 34.0641 10.3033 37.6967C13.9359 41.3292 18.8628 43.37 24 43.37C29.1372 43.37 34.0641 41.3292 37.6967 37.6967C41.3292 34.0641 43.37 29.1372 43.37 24C43.37 21.4563 42.869 18.9375 41.8955 16.5874C40.9221 14.2374 39.4953 12.102 37.6967 10.3033C35.898 8.50468 33.7627 7.07789 31.4126 6.10446C29.0625 5.13102 26.5437 4.63 24 4.63C21.4563 4.63 18.9375 5.13102 16.5874 6.10446C14.2373 7.07789 12.102 8.50468 10.3033 10.3033C8.50468 12.102 7.07789 14.2374 6.10446 16.5874C5.13102 18.9375 4.63 21.4563 4.63 24Z" stroke="#45413C" stroke-linecap="round" stroke-linejoin="round"/>
<path d="M38.33 18.57C37.06 19.5 34.97 18.81 33.68 17.03C32.39 15.25 32.35 13.03 33.62 12.13C34.89 11.23 36.98 11.89 38.28 13.67C39.58 15.45 39.6 17.64 38.33 18.57Z" fill="#87898C"/>
<path d="M33.62 14.51C34.89 13.58 36.98 14.27 38.28 16.05C38.6223 16.5283 38.8856 17.0583 39.06 17.62C39.2588 16.9524 39.2916 16.2465 39.1557 15.5633C39.0197 14.8802 38.7192 14.2406 38.28 13.7C36.98 11.92 34.89 11.23 33.62 12.16C33.1747 12.5754 32.8664 13.1164 32.736 13.7112C32.6056 14.306 32.6593 14.9264 32.89 15.49C33.0405 15.1035 33.2927 14.7649 33.62 14.51Z" fill="#525252"/>
<path d="M38.33 18.6C37.06 19.53 34.97 18.84 33.68 17.06C32.39 15.28 32.35 13.06 33.62 12.16C34.89 11.26 36.98 11.92 38.28 13.7C39.58 15.48 39.6 17.68 38.33 18.6Z" stroke="#45413C" stroke-linecap="round" stroke-linejoin="round"/>
<path d="M9 20.79C9.89 21.12 11 20.32 11.51 19C12.02 17.68 11.71 16.33 10.83 16C9.95 15.67 8.83 16.46 8.32 17.78C7.81 19.1 8.07 20.45 9 20.79Z" fill="#87898C"/>
<path d="M8.27 19.49C8.78 18.16 9.9 17.36 10.78 17.7C10.9744 17.7853 11.1472 17.9132 11.2856 18.0741C11.4241 18.2351 11.5247 18.425 11.58 18.63C11.9 17.44 11.58 16.3 10.78 16C9.98 15.7 8.78 16.46 8.27 17.78C8.0024 18.4417 7.96368 19.1738 8.16 19.86C8.18623 19.7338 8.22303 19.61 8.27 19.49Z" fill="#525252"/>
<path d="M9 20.79C9.89 21.12 11 20.32 11.51 19C12.02 17.68 11.71 16.33 10.83 16C9.95 15.67 8.83 16.46 8.32 17.78C7.81 19.1 8.07 20.45 9 20.79Z" stroke="#45413C" stroke-linecap="round" stroke-linejoin="round"/>
<path d="M23.87 39C23.51 40.37 21.5 41 19.36 40.48C17.22 39.96 15.8 38.32 16.15 37C16.5 35.68 18.53 35 20.66 35.53C22.79 36.06 24.23 37.59 23.87 39Z" fill="#87898C"/>
<path d="M20.66 37.12C21.2962 37.2505 21.8973 37.5151 22.4233 37.8962C22.9492 38.2773 23.3878 38.7661 23.71 39.33C23.7797 39.2144 23.8336 39.09 23.87 38.96C24.23 37.59 22.79 36.03 20.66 35.48C18.53 34.93 16.51 35.58 16.15 36.95C16.0548 37.3791 16.1114 37.8279 16.31 38.22C16.91 37.11 18.73 36.61 20.66 37.12Z" fill="#525252"/>
<path d="M23.87 39C23.51 40.37 21.5 41 19.36 40.48C17.22 39.96 15.8 38.32 16.15 37C16.5 35.68 18.53 35 20.66 35.53C22.79 36.06 24.23 37.59 23.87 39Z" stroke="#45413C" stroke-linecap="round" stroke-linejoin="round"/>
<path d="M35.97 27.13C35.97 27.3913 36.0215 27.6501 36.1215 27.8915C36.2215 28.133 36.3681 28.3524 36.5529 28.5371C36.7376 28.7219 36.957 28.8685 37.1985 28.9685C37.4399 29.0685 37.6987 29.12 37.96 29.12C38.2213 29.12 38.4801 29.0685 38.7215 28.9685C38.963 28.8685 39.1824 28.7219 39.3671 28.5371C39.5519 28.3524 39.6985 28.133 39.7985 27.8915C39.8985 27.6501 39.95 27.3913 39.95 27.13C39.95 26.8687 39.8985 26.6099 39.7985 26.3685C39.6985 26.127 39.5519 25.9076 39.3671 25.7229C39.1824 25.5381 38.963 25.3915 38.7215 25.2915C38.4801 25.1915 38.2213 25.14 37.96 25.14C37.6987 25.14 37.4399 25.1915 37.1985 25.2915C36.957 25.3915 36.7376 25.5381 36.5529 25.7229C36.3681 25.9076 36.2215 26.127 36.1215 26.3685C36.0215 26.6099 35.97 26.8687 35.97 27.13Z" fill="#87898C"/>
<path d="M38 26.63C38.396 26.6328 38.7823 26.7531 39.1098 26.9756C39.4374 27.1981 39.6915 27.5129 39.84 27.88C39.9403 27.6428 39.9914 27.3876 39.99 27.13C39.99 26.5996 39.7793 26.0909 39.4042 25.7158C39.0291 25.3407 38.5204 25.13 37.99 25.13C37.4596 25.13 36.9509 25.3407 36.5758 25.7158C36.2007 26.0909 35.99 26.5996 35.99 27.13C35.9913 27.3873 36.0422 27.642 36.14 27.88C36.2898 27.5097 36.547 27.1928 36.8785 26.97C37.21 26.7472 37.6006 26.6288 38 26.63Z" fill="#525252"/>
<path d="M35.97 27.13C35.97 27.3913 36.0215 27.6501 36.1215 27.8915C36.2215 28.133 36.3681 28.3524 36.5529 28.5371C36.7376 28.7219 36.957 28.8685 37.1985 28.9685C37.4399 29.0685 37.6987 29.12 37.96 29.12C38.2213 29.12 38.4801 29.0685 38.7215 28.9685C38.963 28.8685 39.1824 28.7219 39.3671 28.5371C39.5519 28.3524 39.6985 28.133 39.7985 27.8915C39.8985 27.6501 39.95 27.3913 39.95 27.13C39.95 26.8687 39.8985 26.6099 39.7985 26.3685C39.6985 26.127 39.5519 25.9076 39.3671 25.7229C39.1824 25.5381 38.963 25.3915 38.7215 25.2915C38.4801 25.1915 38.2213 25.14 37.96 25.14C37.6987 25.14 37.4399 25.1915 37.1985 25.2915C36.957 25.3915 36.7376 25.5381 36.5529 25.7229C36.3681 25.9076 36.2215 26.127 36.1215 26.3685C36.0215 26.6099 35.97 26.8687 35.97 27.13Z" stroke="#45413C" stroke-linecap="round" stroke-linejoin="round"/>
<path d="M13.75 25.42C13.75 25.9478 13.9597 26.4539 14.3329 26.8271C14.7061 27.2003 15.2122 27.41 15.74 27.41C16.2678 27.41 16.7739 27.2003 17.1471 26.8271C17.5203 26.4539 17.73 25.9478 17.73 25.42C17.73 24.8922 17.5203 24.386 17.1471 24.0128C16.7739 23.6397 16.2678 23.43 15.74 23.43C15.2122 23.43 14.7061 23.6397 14.3329 24.0128C13.9597 24.386 13.75 24.8922 13.75 25.42Z" fill="#87898C"/>
<path d="M15.74 24.85C16.144 24.852 16.538 24.9763 16.8701 25.2065C17.2021 25.4368 17.4566 25.7623 17.6 26.14C17.6851 25.9095 17.7291 25.6658 17.73 25.42C17.73 24.8896 17.5193 24.3809 17.1442 24.0058C16.7691 23.6307 16.2604 23.42 15.73 23.42C15.1996 23.42 14.6909 23.6307 14.3158 24.0058C13.9407 24.3809 13.73 24.8896 13.73 25.42C13.7309 25.6658 13.7749 25.9095 13.86 26.14C14.0046 25.7591 14.2622 25.4314 14.5982 25.2009C14.9342 24.9703 15.3325 24.8479 15.74 24.85Z" fill="#525252"/>
<path d="M13.75 25.42C13.75 25.9478 13.9597 26.4539 14.3329 26.8271C14.7061 27.2003 15.2122 27.41 15.74 27.41C16.2678 27.41 16.7739 27.2003 17.1471 26.8271C17.5203 26.4539 17.73 25.9478 17.73 25.42C17.73 24.8922 17.5203 24.386 17.1471 24.0128C16.7739 23.6397 16.2678 23.43 15.74 23.43C15.2122 23.43 14.7061 23.6397 14.3329 24.0128C13.9597 24.386 13.75 24.8922 13.75 25.42Z" stroke="#45413C" stroke-linecap="round" stroke-linejoin="round"/>
<path d="M15.45 14.32C15.45 15.227 15.8103 16.0969 16.4517 16.7383C17.0931 17.3797 17.963 17.74 18.87 17.74C19.777 17.74 20.6469 17.3797 21.2883 16.7383C21.9297 16.0969 22.29 15.227 22.29 14.32C22.29 13.413 21.9297 12.5431 21.2883 11.9017C20.6469 11.2603 19.777 10.9 18.87 10.9C17.963 10.9 17.0931 11.2603 16.4517 11.9017C15.8103 12.5431 15.45 13.413 15.45 14.32Z" fill="#87898C"/>
<path d="M18.87 13C19.5875 13.0008 20.2863 13.2286 20.8665 13.6507C21.4467 14.0728 21.8784 14.6676 22.1 15.35C22.2247 15.0105 22.289 14.6517 22.29 14.29C22.29 13.383 21.9297 12.5131 21.2883 11.8717C20.6469 11.2303 19.777 10.87 18.87 10.87C17.963 10.87 17.0931 11.2303 16.4517 11.8717C15.8103 12.5131 15.45 13.383 15.45 14.29C15.4566 14.6512 15.5208 15.009 15.64 15.35C15.8629 14.6684 16.295 14.0744 16.8749 13.6526C17.4548 13.2307 18.1529 13.0023 18.87 13Z" fill="#525252"/>
<path d="M15.49 14.32C15.49 14.7691 15.5785 15.2138 15.7503 15.6288C15.9222 16.0437 16.1741 16.4207 16.4917 16.7383C16.8093 17.0559 17.1863 17.3078 17.6012 17.4797C18.0162 17.6515 18.4609 17.74 18.91 17.74C19.3591 17.74 19.8038 17.6515 20.2188 17.4797C20.6337 17.3078 21.0107 17.0559 21.3283 16.7383C21.6459 16.4207 21.8978 16.0437 22.0697 15.6288C22.2415 15.2138 22.33 14.7691 22.33 14.32C22.33 13.413 21.9697 12.5431 21.3283 11.9017C20.6869 11.2603 19.817 10.9 18.91 10.9C18.003 10.9 17.1331 11.2603 16.4917 11.9017C15.8503 12.5431 15.49 13.413 15.49 14.32Z" stroke="#45413C" stroke-linecap="round" stroke-linejoin="round"/>
<path d="M24.57 30.27C24.57 31.0259 24.8703 31.7508 25.4048 32.2853C25.9392 32.8197 26.6641 33.12 27.42 33.12C28.1759 33.12 28.9008 32.8197 29.4353 32.2853C29.9697 31.7508 30.27 31.0259 30.27 30.27C30.27 29.5141 29.9697 28.7892 29.4353 28.2547C28.9008 27.7203 28.1759 27.42 27.42 27.42C26.6641 27.42 25.9392 27.7203 25.4048 28.2547C24.8703 28.7892 24.57 29.5141 24.57 30.27Z" fill="#87898C"/>
<path d="M27.42 29.13C28.0247 29.1312 28.6131 29.326 29.0989 29.6859C29.5848 30.0458 29.9427 30.5519 30.12 31.13C30.2153 30.8565 30.2659 30.5695 30.27 30.28C30.27 29.5241 29.9697 28.7992 29.4353 28.2647C28.9008 27.7303 28.1759 27.43 27.42 27.43C26.6641 27.43 25.9392 27.7303 25.4048 28.2647C24.8703 28.7992 24.57 29.5241 24.57 30.28C24.5755 30.5686 24.6227 30.8549 24.71 31.13C24.892 30.5528 25.2524 30.0482 25.7394 29.6888C26.2264 29.3294 26.8148 29.1337 27.42 29.13Z" fill="#525252"/>
<path d="M24.57 30.27C24.57 31.0259 24.8703 31.7508 25.4048 32.2853C25.9392 32.8197 26.6641 33.12 27.42 33.12C28.1759 33.12 28.9008 32.8197 29.4353 32.2853C29.9697 31.7508 30.27 31.0259 30.27 30.27C30.27 29.5141 29.9697 28.7892 29.4353 28.2547C28.9008 27.7203 28.1759 27.42 27.42 27.42C26.6641 27.42 25.9392 27.7203 25.4048 28.2547C24.8703 28.7892 24.57 29.5141 24.57 30.27Z" stroke="#45413C" stroke-linecap="round" stroke-linejoin="round"/>
</svg>
