<svg xmlns="http://www.w3.org/2000/svg" viewBox="0 0 128 128"><path fill="#2f406a" d="M102 42v44l-38 22v18l53-31V33l-15 8v1"/><path fill="#2379bd" d="M26 86l38 22v18L11 95V33l15 9v44"/><path fill="#03afef" d="M26 42l-15-9L64 2l53 31-15 9-38-22-38 22"/><path fill="#2f406a" d="M64 81h-1V64h1l14-9v18l-14 8"/><path fill="#2379bd" d="M48 73V55h1l14 9h1v17l-16-8"/><path fill="#03afef" d="M63 47l-15 8 16 9 14-9-15-8"/><path fill="#2f406a" d="M45 92V75l14-9h1v17l-15 9"/><path fill="#2379bd" d="M30 84V66l15 9v17l-15-8"/><path fill="#03afef" d="M45 57l-15 9 15 9 15-9-15-9"/><path fill="#2f406a" d="M83 93V75l15-8v17l-15 9"/><path fill="#2379bd" d="M68 84V67h1l14 8v18l-15-9"/><path fill="#03afef" d="M83 58l-15 9 15 8 15-8-15-9"/><path fill="#2f406a" d="M65 103h-1V86h1l14-9 1 1v17l-15 8"/><path fill="#2379bd" d="M50 95V77l15 9v17l-15-8"/><path fill="#03afef" d="M65 69l-15 8 15 9 15-8-15-9"/><path fill="#2f406a" d="M64 58l-1-1V41l1-1 14-8v17l-14 9"/><path fill="#2379bd" d="M48 50V32h1l14 8h1v18l-16-8"/><path fill="#03afef" d="M63 23l-15 9 16 8 14-8-15-9"/><path fill="#2f406a" d="M45 69V51l14-8h1v17l-15 9"/><path fill="#2379bd" d="M30 60V43l15 8v18l-15-9"/><path fill="#03afef" d="M45 34l-15 9 15 8 15-8-15-9"/><path fill="#2f406a" d="M83 69V51l15-8v17l-15 9"/><path fill="#2379bd" d="M68 61V43h1l14 8v18l-15-8"/><path fill="#03afef" d="M83 34l-15 9 15 9 15-9-15-9"/><path fill="#2f406a" d="M65 80l-1-1V63h1v-1l14-8h1v17l-15 9"/><path fill="#2379bd" d="M50 72V54l15 8v18l-15-8"/><path fill="#03afef" d="M65 45l-15 9 15 9 15-9-15-9"/></svg>