<svg width="27" height="27" viewBox="0 0 40 35" fill="none" xmlns="http://www.w3.org/2000/svg"><g clip-path="url(#clip0_10_53)"><path d="M19.9 3.2l4.4-3c.3-.2.7-.1.7.2l2.4 4.9.2.2.4.1 5.3-.4c.3-.1.6.2.6.6l-.4 5.3v.3l.3.2 4.8 2.4c.4.1.4.5.2.8l-3 4.4-.1.3.1.3 3 4.4c.2.3.2.7-.2.8l-4.8 2.4-.3.2v.3l.4 5.3c0 .4-.3.7-.6.6l-5.3-.4-.4.1-.2.2-2.4 4.9c0 .3-.4.4-.7.2l-4.4-3-.4-.1-.3.1-4.4 3c-.3.2-.7.1-.8-.2l-2.3-4.9-.2-.2-.4-.1-5.3.4c-.3.1-.6-.2-.6-.6l.4-5.3-.1-.3-.2-.2L.5 25c-.3-.1-.5-.5-.2-.8l3-4.4.1-.3-.1-.3-3-4.4c-.3-.3-.1-.7.2-.8l4.8-2.4.2-.2.1-.3-.4-5.3c0-.4.3-.7.6-.6l5.3.4.4-.1.2-.2L14 .4c.1-.3.5-.4.8-.2l4.4 3 .3.1.4-.1z" fill="#FFC639"/><path d="M19.5 34.3c8.2 0 14.9-6.6 14.9-14.8 0-8.2-6.7-14.8-14.9-14.8-8.1 0-14.8 6.6-14.8 14.8 0 8.2 6.7 14.8 14.8 14.8z" fill="#FFE564"/></g><defs><clipPath id="clip0_10_53"><path fill="#fff" d="M0 0h39v39H0z"/></clipPath></defs></svg>